<?xml version="1.0" encoding="UTF-8" standalone="no"?>
<!-- Generator: Adobe Illustrator 16.0.0, SVG Export Plug-In . SVG Version: 6.00 Build 0)  -->

<svg
   xmlns:dc="http://purl.org/dc/elements/1.1/"
   xmlns:cc="http://creativecommons.org/ns#"
   xmlns:rdf="http://www.w3.org/1999/02/22-rdf-syntax-ns#"
   xmlns:svg="http://www.w3.org/2000/svg"
   xmlns="http://www.w3.org/2000/svg"
   xmlns:xlink="http://www.w3.org/1999/xlink"
   xmlns:sodipodi="http://sodipodi.sourceforge.net/DTD/sodipodi-0.dtd"
   xmlns:inkscape="http://www.inkscape.org/namespaces/inkscape"
   version="1.0"
   id="圖層_1"
   x="0px"
   y="0px"
   width="20"
   height="20"
   viewBox="0 0 20 20"
   enable-background="new 0 0 200 200"
   xml:space="preserve"
   inkscape:version="0.48.4 r9939"
   sodipodi:docname="notification_center.svg"
   inkscape:export-filename="E:\PHP\U-sync_SP_Master\apps\notification\img\notification_center.png"
   inkscape:export-xdpi="90"
   inkscape:export-ydpi="90"><metadata
   id="metadata35"><rdf:RDF><cc:Work
       rdf:about=""><dc:format>image/svg+xml</dc:format><dc:type
         rdf:resource="http://purl.org/dc/dcmitype/StillImage" /><dc:title></dc:title></cc:Work></rdf:RDF></metadata><defs
   id="defs33"><linearGradient
     inkscape:collect="always"
     xlink:href="#SVGID_1_"
     id="linearGradient3018"
     gradientUnits="userSpaceOnUse"
     x1="101.9912"
     y1="154.91499"
     x2="101.9912"
     y2="19.897499" /><linearGradient
     inkscape:collect="always"
     xlink:href="#SVGID_2_"
     id="linearGradient3020"
     gradientUnits="userSpaceOnUse"
     x1="101.9531"
     y1="184.46091"
     x2="101.9531"
     y2="165.6543" /><linearGradient
     inkscape:collect="always"
     xlink:href="#SVGID_3_"
     id="linearGradient3022"
     gradientUnits="userSpaceOnUse"
     x1="101.8555"
     y1="150.55859"
     x2="101.8555"
     y2="15.5391" /><linearGradient
     inkscape:collect="always"
     xlink:href="#SVGID_4_"
     id="linearGradient3024"
     gradientUnits="userSpaceOnUse"
     x1="101.7598"
     y1="179.0137"
     x2="101.7598"
     y2="160.20309" /></defs><sodipodi:namedview
   pagecolor="#ffffff"
   bordercolor="#666666"
   borderopacity="1"
   objecttolerance="10"
   gridtolerance="10"
   guidetolerance="10"
   inkscape:pageopacity="0"
   inkscape:pageshadow="2"
   inkscape:window-width="1069"
   inkscape:window-height="768"
   id="namedview31"
   showgrid="false"
   inkscape:zoom="13.350176"
   inkscape:cx="-2.7537252"
   inkscape:cy="9.5847604"
   inkscape:window-x="324"
   inkscape:window-y="53"
   inkscape:window-maximized="0"
   inkscape:current-layer="圖層_1" />
<linearGradient
   id="SVGID_1_"
   gradientUnits="userSpaceOnUse"
   x1="101.9912"
   y1="154.91499"
   x2="101.9912"
   y2="19.897499">
	<stop
   offset="0"
   style="stop-color:#201E1E"
   id="stop4" />
	<stop
   offset="0.9474"
   style="stop-color:#000000"
   id="stop6" />
</linearGradient>

<linearGradient
   id="SVGID_2_"
   gradientUnits="userSpaceOnUse"
   x1="101.9531"
   y1="184.46091"
   x2="101.9531"
   y2="165.6543">
	<stop
   offset="0"
   style="stop-color:#201E1E"
   id="stop11" />
	<stop
   offset="0.9474"
   style="stop-color:#000000"
   id="stop13" />
</linearGradient>

<linearGradient
   id="SVGID_3_"
   gradientUnits="userSpaceOnUse"
   x1="101.8555"
   y1="150.55859"
   x2="101.8555"
   y2="15.5391">
	<stop
   offset="0"
   style="stop-color:#D2D3D3"
   id="stop18" />
	<stop
   offset="1"
   style="stop-color:#FFFFFF"
   id="stop20" />
</linearGradient>

<linearGradient
   id="SVGID_4_"
   gradientUnits="userSpaceOnUse"
   x1="101.7598"
   y1="179.0137"
   x2="101.7598"
   y2="160.20309">
	<stop
   offset="0"
   style="stop-color:#D2D3D3"
   id="stop25" />
	<stop
   offset="1"
   style="stop-color:#FFFFFF"
   id="stop27" />
</linearGradient>
<g
   id="g3012"
   transform="matrix(0.11839784,0,0,0.11839784,-2.0676534,-1.8398135)"><path
     id="path8"
     d="m 63.347,69.524 c 3.056,-29.796 29.189,-34.35 29.189,-34.35 0,0 -2.748,-3.934 0.247,-9.596 4.976,-9.41 16.698,-5.661 19.07,0.659 1.85,3.887 -0.105,8.879 -0.105,8.879 0,0 27.715,6.086 28.96,35.209 0.085,1.951 -1.829,17.598 4.913,31.645 2.729,5.679 5.751,12.556 12.683,20.216 4.4,4.861 13.228,11.177 15.415,14.057 9.494,12.477 -3.756,18.39 -3.756,18.39 l -131.152,0.282 c 0,0 -6.873,0.114 -9.456,-3.413 -4.23,-5.779 -2.136,-10.902 -0.822,-12.916 1.712,-2.619 5.957,-6.211 8.642,-8.26 2.74,-2.094 4.704,-4.229 6.837,-6.373 10.15,-10.195 12.849,-18.722 16.379,-27.601 4.256,-10.697 2.792,-25.262 2.956,-26.828 z"
     inkscape:connector-curvature="0"
     style="fill:url(#linearGradient3018)" /><path
     id="path15"
     d="m 120.759,165.654 c 0,0 0,19.045 -18.809,18.805 -18.803,-0.242 -18.803,-18.805 -18.803,-18.805 h 37.612 z"
     inkscape:connector-curvature="0"
     style="fill:url(#linearGradient3020)" /><path
     id="path22"
     d="m 63.212,65.166 c 3.053,-29.797 29.187,-34.347 29.187,-34.347 0,0 -2.745,-3.934 0.25,-9.599 4.973,-9.409 16.698,-5.66 19.071,0.661 1.848,3.882 -0.109,8.875 -0.109,8.875 0,0 27.718,6.09 28.96,35.211 0.084,1.951 -1.827,17.598 4.915,31.645 2.727,5.68 5.749,12.557 12.683,20.219 4.398,4.861 13.225,11.174 15.416,14.057 9.491,12.475 -3.757,18.385 -3.757,18.385 L 38.677,150.56 c 0,0 -6.875,0.109 -9.457,-3.415 -4.23,-5.78 -2.135,-10.903 -0.822,-12.915 1.712,-2.621 5.955,-6.211 8.639,-8.262 2.743,-2.094 4.707,-4.229 6.84,-6.373 C 54.025,109.4 56.726,100.876 60.256,91.996 64.51,81.298 63.047,66.731 63.212,65.166 z"
     inkscape:connector-curvature="0"
     style="fill:url(#linearGradient3022)" /><path
     id="path29"
     d="m 120.566,160.203 c 0,0 0,19.042 -18.803,18.809 -18.81,-0.242 -18.81,-18.809 -18.81,-18.809 h 37.613 z"
     inkscape:connector-curvature="0"
     style="fill:url(#linearGradient3024)" /></g>
</svg>