<?xml version="1.0" encoding="utf-8"?>
<!-- Generator: Adobe Illustrator 16.0.0, SVG Export Plug-In . SVG Version: 6.00 Build 0)  -->
<!DOCTYPE svg PUBLIC "-//W3C//DTD SVG 1.1//EN" "http://www.w3.org/Graphics/SVG/1.1/DTD/svg11.dtd">
<svg version="1.1" id="圖層_1" xmlns="http://www.w3.org/2000/svg" xmlns:xlink="http://www.w3.org/1999/xlink" x="0px" y="0px"
width="16px" height="16px" viewBox="0 0 100 100" enable-background="new 0 0 100 100" xml:space="preserve">
  <g transform="translate(0.000000,5000.000000) scale(0.100000,-0.100000)">
    <linearGradient id="SVGID_1_" gradientUnits="userSpaceOnUse" x1="10" y1="49499.9961" x2="108" y2="49499.9961">
      <stop  offset="0" style="stop-color:#FFFFFF"/>
      <stop  offset="0" style="stop-color:#585858"/>
    </linearGradient>
    <path fill="url(#SVGID_1_)" d="M432.383,49944.109v-45.91l-4.717-0.742c-17.334-2.781-35.498-6.98-52.881-12.23
    c-3.477-1.031-15.215-4.867-16.631-5.434c-0.244-0.078-5.303,8.516-22.402,37.996c-12.158,20.973-22.188,38.121-22.266,38.137
    c-0.186,0-115.937-66.484-116.621-66.973c-0.361-0.266,0.977-2.594,21.016-37.16c11.758-20.281,21.494-37.074,21.611-37.313
    c0.215-0.363-0.098-0.664-3.359-3.348c-18.027-14.777-37.246-33.52-51.045-49.797c-0.762-0.938-1.475-1.68-1.553-1.68
    c-0.088,0-16.67,9.5-36.885,21.102c-20.195,11.621-36.865,21.133-37.041,21.152c-0.195,0.02-12.041-20.223-34.014-58.066
    c-18.535-31.973-33.682-58.164-33.643-58.223c0.039-0.078,16.406-9.512,36.338-20.977l36.279-20.84l-0.762-1.941
    c-2.324-5.988-6.504-18.105-8.896-25.879c-4.326-14.016-8.896-32.941-11.289-46.68l-0.342-2.082h-41.66H10v-67.227v-67.227h41.133
    h41.152l0.244-1.445c4.004-24.551,10.723-50.176,19.141-73.164c1.27-3.535,1.27-3.555,0.85-3.797
    c-8.535-4.824-70.566-40.832-70.547-40.957c0.039-0.246,67.168-116.516,67.373-116.73c0.107-0.117,15.879,8.867,35.898,20.449
    c19.639,11.34,35.811,20.547,35.889,20.441c0.078-0.078,1.553-1.797,3.271-3.809c14.609-17.16,30.996-33.34,48.584-48.02
    c3.203-2.676,5.049-4.355,4.941-4.48c-0.098-0.117-9.443-16.301-20.801-35.969c-11.602-20.117-20.566-35.828-20.459-35.938
    c0.225-0.215,116.494-67.344,116.738-67.383c0.078-0.02,9.648,16.387,21.25,36.465c11.592,20.078,21.152,36.555,21.23,36.633
    c0.078,0.086,2.246-0.578,4.814-1.477c20.713-7.227,43.037-12.832,65.781-16.59l5.781-0.949l0.078-43.027l0.039-43.027H500h67.617
    v44.27v44.246l3.008,0.566c21.738,4.133,46.924,11.348,67.969,19.523c1.836,0.711,3.447,1.297,3.574,1.297
    c0.137,0,10.117-17.051,22.197-37.93c12.08-20.84,22.07-37.891,22.148-37.898c0.205,0,116.328,66.668,116.709,67.031
    c0.234,0.203-3.75,7.176-22.588,39.617l-22.822,39.406l0.469,0.438c0.254,0.234,1.699,1.523,3.184,2.863
    c6.279,5.516,10.479,9.52,18.164,17.195c10.459,10.469,18.281,19.055,26.738,29.414c1.563,1.914,2.988,3.625,3.174,3.82
    c0.322,0.352,2.266-0.742,40.449-22.688c22.041-12.676,40.225-23.066,40.391-23.074c0.459-0.051,67.813,116.082,67.51,116.387
    c-0.127,0.125-18.76,10.887-41.436,23.895l-41.191,23.652l1.699,5.02c7.031,20.684,12.832,44.023,16.074,64.609l0.137,1.016
    l48.428,0.059l48.398,0.039v67.227v67.227h-48.848h-48.857l-0.215,1.066c-2.715,14.09-3.682,18.523-5.811,27.215
    c-3.203,12.852-7.08,25.645-11.377,37.695c-0.83,2.324-1.455,4.258-1.406,4.316c0.059,0.059,19.111,11.086,42.344,24.504
    c23.242,13.418,42.217,24.492,42.197,24.57c-0.039,0.242-67.168,116.492-67.383,116.738c-0.107,0.105-18.691-10.52-42.393-24.211
    c-34.717-20.039-42.266-24.316-42.471-24.082c-0.137,0.129-1.611,1.848-3.262,3.809c-12.979,15.352-27.549,30.188-42.91,43.633
    l-4.609,4.035l0.586,0.945c8.184,13.938,47.871,83.059,47.744,83.188c-0.225,0.211-116.475,67.34-116.729,67.379
    c-0.088,0.016-10.859-18.434-23.896-41.02c-13.047-22.578-23.789-41.125-23.867-41.211c-0.088-0.078-2.246,0.621-4.824,1.586
    c-19.346,7.223-41.875,13.586-62.07,17.539l-4.326,0.852v47.129v47.098H500h-67.617V49944.109z M626.836,49769.859
    c21.465-2.188,41.064-12.363,55.313-28.758c11.807-13.594,18.896-30.625,20.342-48.879c0.303-3.77,0.117-12.793-0.322-16.328
    c-2.158-17.246-9.131-32.852-20.508-45.82c-2.637-3.016-7.334-7.52-10.479-10.039c-2.764-2.227-8.33-6.016-11.201-7.645
    c-9.707-5.488-20.098-8.906-31.826-10.441c-4.053-0.527-15.771-0.527-19.873,0c-14.824,1.926-28.086,7.16-39.785,15.676
    c-2.92,2.148-5.088,3.953-8.32,6.961c-1.396,1.289-2.656,2.422-2.773,2.531c-0.186,0.117-29.395-18.215-90.684-56.934
    l-90.43-57.121l1.074-3.191c2.656-7.961,4.033-15.957,4.258-24.668c0.244-9.582-0.957-18.215-3.74-27.238
    c-0.283-0.918-0.479-1.699-0.439-1.766c0.039-0.039,40.029-23.195,88.838-51.445l88.75-51.379l3.818,3.77
    c2.09,2.07,5.049,4.746,6.543,5.957c12.734,10.137,26.934,16.047,43.604,18.105c2.266,0.293,4.404,0.371,9.326,0.352
    c6.836,0,9.482-0.203,15.01-1.219c34.541-6.27,61.68-33.313,67.998-67.813c1.064-5.813,1.24-7.941,1.24-15.313
    c0-7.375-0.176-9.484-1.24-15.305c-4.795-26.113-21.689-48.496-45.596-60.379c-20-9.922-43.379-11.457-64.688-4.25
    c-24.502,8.301-44.229,27.93-52.627,52.375c-4.756,13.855-5.84,28.875-3.115,43.281c0.586,3.105,1.719,7.703,2.412,9.754
    l0.488,1.387l-0.654,0.371c-0.605,0.371-174.482,101.016-176.25,102.043l-0.83,0.469l-3.32-3.34
    c-13.027-13.008-28.428-20.918-46.543-23.898c-8.232-1.355-18.525-1.355-26.826,0c-22.695,3.73-42.559,16.184-55.752,34.961
    c-12.168,17.363-17.363,38.945-14.424,60.137c4.131,29.875,24.111,55.391,52.187,66.68c18.76,7.52,39.814,8.047,59.014,1.457
    c11.27-3.879,22.285-10.637,30.742-18.789c1.396-1.387,2.607-2.5,2.695-2.5c0.117,0,180.527,113.875,180.859,114.16
    c0.078,0.078-0.078,0.809-0.391,1.648c-5.596,15.527-6.396,33.34-2.207,49.57c5.488,21.25,19.219,39.648,38.184,51.133
    c3.242,1.992,9.072,4.895,12.402,6.191C599.844,49769.352,613.408,49771.246,626.836,49769.859z"/>
  </g>
</svg>
