<?xml version="1.0" encoding="utf-8"?>
<!-- Generator: Adobe Illustrator 16.0.0, SVG Export Plug-In . SVG Version: 6.00 Build 0)  -->
<!DOCTYPE svg PUBLIC "-//W3C//DTD SVG 1.1//EN" "http://www.w3.org/Graphics/SVG/1.1/DTD/svg11.dtd">
<svg version="1.1" id="圖層_1" xmlns="http://www.w3.org/2000/svg" xmlns:xlink="http://www.w3.org/1999/xlink" x="0px" y="0px"
	 width="100px" height="100px" viewBox="0 0 100 100" enable-background="new 0 0 100 100" xml:space="preserve">
<g transform="translate(0.000000,5000.000000) scale(0.100000,-0.100000)">
	<path d="M282.544,49999.879c-11.66-1.004-19.688-2.293-29.59-4.785c-19.844-4.949-39.463-13.672-57.129-25.379
		c-8.184-5.441-15.146-10.84-23.086-17.93c-3.828-3.418-119.785-119.395-124.023-124.055c-9.18-10.078-17.822-21.961-24.756-34.012
		c-2.744-4.766-7.588-14.445-9.639-19.309c-7.266-17.059-11.719-34.109-13.535-51.895c-1.172-11.648-1.035-24.512,0.41-36.004
		c3.516-27.871,14.639-53.184,32.48-73.918c2.207-2.566,67.998-68.602,154.922-155.488c61.689-61.66,65.225-65.156,65.742-65.047
		c0.596,0.164,156.055,45.887,156.484,46.035c0.166,0.059-36.104,36.543-90.703,91.219c-53.75,53.828-90.986,91.27-90.986,91.484
		c0,0.207-0.947,1.152-2.295,2.324c-3.184,2.707-9.893,9.465-12.461,12.59c-4.033,4.805-7.236,9.324-10.352,14.492
		c-2.07,3.457-6.035,11.465-7.51,15.203c-7.07,17.91-9.326,37.637-6.475,56.602c4.736,31.348,23.086,59.113,50.195,75.938
		c21.445,13.32,47.09,18.703,72.227,15.137c20.361-2.871,38.691-11.074,54.902-24.551c3.086-2.566,9.824-9.305,12.5-12.48
		c1.455-1.738,2.129-2.402,2.285-2.246c0.127,0.148,28.506-28.074,96.68-96.23c63.228-63.242,96.509-96.355,96.567-96.191
		c0.059,0.188,10.313,34.414,22.822,76.094l22.705,75.773l-30.996,31.141c-56.387,56.621-199.517,199.531-201.997,201.691
		c-22.9,19.871-50.693,31.277-82.158,33.738C303.442,50000.016,284.497,50000.074,282.544,49999.879z"/>
	<path d="M333.755,49733.387c-28.877-2.676-54.473-23.242-63.584-51.125c-6.582-20.117-3.877-41.543,7.295-57.969
		c0.742-1.082,2.139-2.969,3.096-4.199c2.49-3.133,336.489-337.07,339.663-339.59c11.602-9.227,25.225-13.926,40.254-13.926
		c21.895,0.02,42.861,10.324,57.168,28.137c13.994,17.449,19.336,40.332,14.18,61.074c-2.236,9.07-6.055,16.797-12.002,24.297
		c-1.299,1.641-44.482,44.949-168.594,169.07c-91.792,91.789-167.739,167.656-168.813,168.613
		c-9.58,8.457-20.732,13.496-33.945,15.332C345.728,49733.484,336.724,49733.668,333.755,49733.387z"/>
	<path d="M672.539,49583.395c-43.623-10.313-79.58-18.867-79.912-18.945c-0.605-0.195,0.02-0.809,94.883-95.703
		c66.777-66.805,95.43-95.574,95.342-95.789c-0.068-0.207,0.674-0.969,2.451-2.492c3.496-2.949,9.258-8.777,12.178-12.285
		c14.609-17.449,22.764-36.836,25.225-59.793c0.449-4.102,0.508-15.703,0.098-19.707c-2.334-23.516-10.742-43.477-25.801-61.301
		c-4.297-5.098-11.484-11.836-17.383-16.258c-14.18-10.695-31.572-17.91-49.316-20.43c-6.23-0.891-8.135-1.016-15.654-1.016
		c-7.48,0-10.469,0.203-16.318,1.094c-20.43,3.152-39.268,11.883-54.893,25.469c-2.91,2.539-8.555,8.223-11.064,11.191
		c-1.533,1.777-2.402,2.664-2.549,2.527c-0.117-0.117-36.025,35.637-103.027,102.629l-102.837,102.82l-19.824-81.961l-19.844-81.945
		l23.779-23.895c13.086-13.176,63.877-63.996,112.866-112.949c89.033-88.977,91.045-90.949,97.021-95.637
		c19.785-15.469,43.916-25.195,69.98-28.23c6.563-0.762,9.072-0.859,20.107-0.762c11.348,0.078,13.271,0.223,21.68,1.445
		c25.039,3.621,49.16,12.703,71.436,26.836c10.459,6.629,19.707,13.887,29.609,23.172c4.668,4.395,117.334,117.266,120.527,120.801
		c21.582,23.633,37.227,53.125,44.316,83.457c4.443,19.102,5.527,38.996,3.193,57.746c-3.252,25.75-13.232,49.863-28.682,69.305
		c-5.039,6.328-0.703,1.965-134.951,136.262c-45.703,45.73-83.164,83.152-83.223,83.133
		C751.894,49602.184,716.162,49593.719,672.539,49583.395z"/>
</g>
</svg>
