<?xml version="1.0" encoding="UTF-8" standalone="no"?>
<svg
   xmlns:dc="http://purl.org/dc/elements/1.1/"
   xmlns:cc="http://creativecommons.org/ns#"
   xmlns:rdf="http://www.w3.org/1999/02/22-rdf-syntax-ns#"
   xmlns:svg="http://www.w3.org/2000/svg"
   xmlns="http://www.w3.org/2000/svg"
   xmlns:sodipodi="http://sodipodi.sourceforge.net/DTD/sodipodi-0.dtd"
   xmlns:inkscape="http://www.inkscape.org/namespaces/inkscape"
   version="1.0"
   width="16px"
   height="16px"
   viewBox="0 0 5000.000000 5000.000000"
   preserveAspectRatio="xMidYMid meet"
   id="svg2"
   inkscape:version="0.48.4 r9939"
   sodipodi:docname="mediaconverter.svg">
  <defs
     id="defs20">
    <linearGradient
       id="SVGID_1_"
       gradientUnits="userSpaceOnUse"
       x1="399.9985"
       y1="688.46478"
       x2="399.9985"
       y2="5.4653001">
      <stop
         offset="0"
         style="stop-color:#6B6B6B"
         id="stop6" />
      <stop
         offset="1"
         style="stop-color:#4A4A4A"
         id="stop8" />
    </linearGradient>
    <linearGradient
       id="SVGID_2_"
       gradientUnits="userSpaceOnUse"
       x1="745.28711"
       y1="794.53522"
       x2="745.28711"
       y2="726.62012">
      <stop
         offset="0"
         style="stop-color:#6B6B6B"
         id="stop13" />
      <stop
         offset="1"
         style="stop-color:#4A4A4A"
         id="stop15" />
    </linearGradient>
    <linearGradient
       id="SVGID_3_"
       gradientUnits="userSpaceOnUse"
       x1="518.15332"
       y1="748.15228"
       x2="518.15332"
       y2="389.61771">
      <stop
         offset="0"
         style="stop-color:#6B6B6B"
         id="stop20" />
      <stop
         offset="1"
         style="stop-color:#4A4A4A"
         id="stop22" />
    </linearGradient>
    <linearGradient
       id="SVGID_4_"
       gradientUnits="userSpaceOnUse"
       x1="641.72461"
       y1="773.92383"
       x2="641.72461"
       y2="415.3887">
      <stop
         offset="0"
         style="stop-color:#6B6B6B"
         id="stop27" />
      <stop
         offset="1"
         style="stop-color:#4A4A4A"
         id="stop29" />
    </linearGradient>
  </defs>
  <sodipodi:namedview
     pagecolor="#ffffff"
     bordercolor="#666666"
     borderopacity="1"
     objecttolerance="10"
     gridtolerance="10"
     guidetolerance="10"
     inkscape:pageopacity="0"
     inkscape:pageshadow="2"
     inkscape:window-width="877"
     inkscape:window-height="667"
     id="namedview18"
     showgrid="false"
     inkscape:zoom="29.5"
     inkscape:cx="4.8378213"
     inkscape:cy="8.2158156"
     inkscape:window-x="2133"
     inkscape:window-y="297"
     inkscape:window-maximized="0"
     inkscape:current-layer="svg2" />
  <metadata
     id="metadata4">
Created by potrace 1.11, written by Peter Selinger 2001-2013
<rdf:RDF>
  <cc:Work
     rdf:about="">
    <dc:format>image/svg+xml</dc:format>
    <dc:type
       rdf:resource="http://purl.org/dc/dcmitype/StillImage" />
  </cc:Work>
</rdf:RDF>
</metadata>
  <g
     transform="matrix(6.3121667,0,0,6.3121667,-24.857312,-15.237369)"
     id="g3">
    <linearGradient
       id="linearGradient3037"
       gradientUnits="userSpaceOnUse"
       x1="399.9985"
       y1="688.46478"
       x2="399.9985"
       y2="5.4653001">
      <stop
         offset="0"
         style="stop-color:#6B6B6B"
         id="stop3039" />
      <stop
         offset="1"
         style="stop-color:#4A4A4A"
         id="stop3041" />
    </linearGradient>
    <path
       style="fill:url(#SVGID_1_)"
       inkscape:connector-curvature="0"
       d="m 380.887,554.825 c -30.354,-41.776 -21.092,-100.249 20.684,-130.601 21.28,-15.461 46.892,-20.638 70.913,-16.479 l 45,-25.981 c -36.417,-3.024 -69.222,-27.378 -81.222,-64.309 -15.957,-49.112 10.92,-101.86 60.031,-117.817 49.109,-15.957 101.859,10.919 117.816,60.03 14.386,44.277 -6.047,91.504 -46.196,112.067 1.954,1.712 3.675,3.773 5.064,6.18 l 41.399,71.706 10.525,-39.282 c 3.572,-13.337 17.047,-20.842 30.383,-17.269 l 27.476,7.362 c 2.739,-17.422 4.177,-35.276 4.177,-53.468 0,-82.428 -29.205,-158.033 -77.83,-217.037 178.011,40.769 154.238,194.489 124.765,284.2 l 23.802,6.378 c 5.27,1.412 9.725,4.346 12.971,8.197 C 875.699,120.45 624.848,89.57 566.316,86.535 506.768,35.98 429.672,5.465 345.438,5.465 c -188.605,0 -341.5,152.895 -341.5,341.5 0,188.605 152.895,341.5 341.5,341.5 15.724,0 31.191,-1.086 46.351,-3.144 l 26.792,-99.989 c -14.559,-6.447 -27.663,-16.699 -37.694,-30.507 z M 345.438,64.467 c 51.639,0 93.5,41.861 93.5,93.5 0,51.639 -41.861,93.5 -93.5,93.5 -51.639,0 -93.5,-41.861 -93.5,-93.5 0,-51.639 41.861,-93.5 93.5,-93.5 z M 76.766,259.669 c 15.959,-49.111 68.707,-75.987 117.816,-60.03 49.111,15.957 75.988,68.705 60.031,117.816 -15.957,49.111 -68.705,75.988 -117.816,60.03 C 87.686,361.528 60.809,308.78 76.766,259.669 z M 309.99,554.826 c -30.352,41.775 -88.824,51.037 -130.601,20.685 -41.777,-30.352 -51.038,-88.825 -20.685,-130.601 30.352,-41.777 88.824,-51.038 130.601,-20.686 41.777,30.352 51.039,88.825 20.685,130.602 z m 35.198,-165.361 c -23.472,0 -42.5,-19.027 -42.5,-42.5 0,-23.473 19.028,-42.5 42.5,-42.5 23.473,0 42.5,19.027 42.5,42.5 0,23.473 -19.028,42.5 -42.5,42.5 z"
       id="path10" />
    <linearGradient
       id="linearGradient3044"
       gradientUnits="userSpaceOnUse"
       x1="745.28711"
       y1="794.53522"
       x2="745.28711"
       y2="726.62012">
      <stop
         offset="0"
         style="stop-color:#6B6B6B"
         id="stop3046" />
      <stop
         offset="1"
         style="stop-color:#4A4A4A"
         id="stop3048" />
    </linearGradient>
    <path
       style="fill:url(#SVGID_2_)"
       inkscape:connector-curvature="0"
       d="m 737.931,726.62 -36.364,20.995 c 29.113,38.214 67.943,46.92 67.943,46.92 l 19.499,-31.498 c -23.035,-7.588 -39.555,-20.368 -51.078,-36.417 z"
       id="path17" />
    <linearGradient
       id="linearGradient3051"
       gradientUnits="userSpaceOnUse"
       x1="518.15332"
       y1="748.15228"
       x2="518.15332"
       y2="389.61771">
      <stop
         offset="0"
         style="stop-color:#6B6B6B"
         id="stop3053" />
      <stop
         offset="1"
         style="stop-color:#4A4A4A"
         id="stop3055" />
    </linearGradient>
    <path
       style="fill:url(#SVGID_3_)"
       inkscape:connector-curvature="0"
       d="m 505.061,593.838 c 5.979,-3.452 12.799,-4.177 18.979,-2.521 l 26.685,7.144 19.104,-71.301 72.021,19.3 -90.547,-156.843 -156.842,90.548 72.457,19.417 -59.209,221 102.91,27.57 17.322,-64.651 -32.038,-55.491 c -6.905,-11.957 -2.799,-27.27 9.158,-34.172 z"
       id="path24" />
    <linearGradient
       id="linearGradient3058"
       gradientUnits="userSpaceOnUse"
       x1="641.72461"
       y1="773.92383"
       x2="641.72461"
       y2="415.3887">
      <stop
         offset="0"
         style="stop-color:#6B6B6B"
         id="stop3060" />
      <stop
         offset="1"
         style="stop-color:#4A4A4A"
         id="stop3062" />
    </linearGradient>
    <path
       style="fill:url(#SVGID_4_)"
       inkscape:connector-curvature="0"
       d="m 692.962,663.959 59.21,-220.999 -102.911,-27.571 -17.321,64.652 32.038,55.491 c 6.903,11.956 2.827,27.277 -9.131,34.181 -5.978,3.45 -12.768,4.183 -18.948,2.527 l -26.743,-7.16 -19.104,71.302 -72.021,-19.3 90.549,156.842 156.84,-90.548 -72.458,-19.417 z"
       id="path31" />
  </g>
</svg>
