<?xml version="1.0" encoding="UTF-8" standalone="no"?>
<!-- Generator: Adobe Illustrator 16.0.0, SVG Export Plug-In . SVG Version: 6.00 Build 0)  -->

<svg
   xmlns:dc="http://purl.org/dc/elements/1.1/"
   xmlns:cc="http://creativecommons.org/ns#"
   xmlns:rdf="http://www.w3.org/1999/02/22-rdf-syntax-ns#"
   xmlns:svg="http://www.w3.org/2000/svg"
   xmlns="http://www.w3.org/2000/svg"
   xmlns:xlink="http://www.w3.org/1999/xlink"
   xmlns:sodipodi="http://sodipodi.sourceforge.net/DTD/sodipodi-0.dtd"
   xmlns:inkscape="http://www.inkscape.org/namespaces/inkscape"
   version="1.1"
   id="圖層_1"
   x="0px"
   y="0px"
   width="16"
   height="16"
   viewBox="0 0 16 16"
   enable-background="new 0 0 800 800"
   xml:space="preserve"
   inkscape:version="0.48.4 r9939"
   sodipodi:docname="分享收件箱.svg"><metadata
   id="metadata30"><rdf:RDF><cc:Work
       rdf:about=""><dc:format>image/svg+xml</dc:format><dc:type
         rdf:resource="http://purl.org/dc/dcmitype/StillImage" /></cc:Work></rdf:RDF></metadata><defs
   id="defs28"><linearGradient
     inkscape:collect="always"
     xlink:href="#SVGID_1_"
     id="linearGradient3589"
     gradientUnits="userSpaceOnUse"
     x1="396.00049"
     y1="440"
     x2="396.00049"
     y2="22.919399" /><linearGradient
     inkscape:collect="always"
     xlink:href="#SVGID_2_"
     id="linearGradient3591"
     gradientUnits="userSpaceOnUse"
     x1="228"
     y1="771"
     x2="228"
     y2="488" /><linearGradient
     inkscape:collect="always"
     xlink:href="#SVGID_3_"
     id="linearGradient3593"
     gradientUnits="userSpaceOnUse"
     x1="564"
     y1="771"
     x2="564"
     y2="488" /></defs><sodipodi:namedview
   pagecolor="#ffffff"
   bordercolor="#666666"
   borderopacity="1"
   objecttolerance="10"
   gridtolerance="10"
   guidetolerance="10"
   inkscape:pageopacity="0"
   inkscape:pageshadow="2"
   inkscape:window-width="1268"
   inkscape:window-height="743"
   id="namedview26"
   showgrid="false"
   inkscape:snap-page="true"
   inkscape:snap-midpoints="false"
   inkscape:zoom="31.225835"
   inkscape:cx="11.491853"
   inkscape:cy="7.479986"
   inkscape:window-x="154"
   inkscape:window-y="36"
   inkscape:window-maximized="0"
   inkscape:current-layer="圖層_1" />
<g
   id="g3"
   transform="matrix(0.02169988,0,0,0.02093535,-0.59224396,-0.33810423)">
	<linearGradient
   id="SVGID_1_"
   gradientUnits="userSpaceOnUse"
   x1="396.00049"
   y1="440"
   x2="396.00049"
   y2="22.919399">
		<stop
   offset="0"
   style="stop-color:#6B6B6B"
   id="stop6" />
		<stop
   offset="1"
   style="stop-color:#4A4A4A"
   id="stop8" />
	</linearGradient>
	<path
   d="m 490,245 v -6.244 c 64.872,-4.162 152.777,-21.424 162.334,-83.754 15.333,-100 -71.667,-134 -116.167,-132 C 491.805,24.995 420.453,60.793 420.012,205 h -48.02 C 371.549,60.793 300.197,24.995 255.836,23.001 c -44.5,-2 -131.501,32 -116.168,132 C 149.224,217.332 237,234.594 302,238.756 V 245 H 42 v 195 h 42 288 v -179 -16 -4 h 48 v 4 16 179 h 288 42 V 245 H 490 z M 272.299,193.668 c -138.192,-28.878 -70.333,-108.667 -47,-118.667 78.688,-33.723 94,82 94,82 12,54 -24.667,41.334 -47,36.667 z m 200.405,-36.667 c 0,0 15.313,-115.723 94,-82 23.333,10 91.192,89.788 -47,118.667 -22.333,4.667 -59,17.333 -47,-36.667 z"
   id="path10"
   inkscape:connector-curvature="0"
   style="fill:url(#linearGradient3589)" />
	<linearGradient
   id="SVGID_2_"
   gradientUnits="userSpaceOnUse"
   x1="228"
   y1="771"
   x2="228"
   y2="488">
		<stop
   offset="0"
   style="stop-color:#6B6B6B"
   id="stop13" />
		<stop
   offset="1"
   style="stop-color:#4A4A4A"
   id="stop15" />
	</linearGradient>
	<rect
   x="84"
   y="488"
   width="288"
   height="283"
   id="rect17"
   style="fill:url(#linearGradient3591)" />
	<linearGradient
   id="SVGID_3_"
   gradientUnits="userSpaceOnUse"
   x1="564"
   y1="771"
   x2="564"
   y2="488">
		<stop
   offset="0"
   style="stop-color:#6B6B6B"
   id="stop20" />
		<stop
   offset="1"
   style="stop-color:#4A4A4A"
   id="stop22" />
	</linearGradient>
	<rect
   x="420"
   y="488"
   width="288"
   height="283"
   id="rect24"
   style="fill:url(#linearGradient3593)" />
</g>
</svg>