<?xml version="1.0" encoding="UTF-8" standalone="no"?>
<!-- Generator: Adobe Illustrator 16.0.0, SVG Export Plug-In . SVG Version: 6.00 Build 0)  -->

<svg
   xmlns:dc="http://purl.org/dc/elements/1.1/"
   xmlns:cc="http://creativecommons.org/ns#"
   xmlns:rdf="http://www.w3.org/1999/02/22-rdf-syntax-ns#"
   xmlns:svg="http://www.w3.org/2000/svg"
   xmlns="http://www.w3.org/2000/svg"
   xmlns:xlink="http://www.w3.org/1999/xlink"
   xmlns:sodipodi="http://sodipodi.sourceforge.net/DTD/sodipodi-0.dtd"
   xmlns:inkscape="http://www.inkscape.org/namespaces/inkscape"
   version="1.1"
   id="圖層_1"
   x="0px"
   y="0px"
   width="16px"
   height="16px"
   viewBox="0 0 100 100"
   enable-background="new 0 0 100 100"
   xml:space="preserve"
   inkscape:version="0.48.4 r9939"
   sodipodi:docname="groupshare_manager.svg"><metadata
   id="metadata16"><rdf:RDF><cc:Work
       rdf:about=""><dc:format>image/svg+xml</dc:format><dc:type
         rdf:resource="http://purl.org/dc/dcmitype/StillImage" /></cc:Work></rdf:RDF></metadata><defs
   id="defs14"><linearGradient
     id="SVGID_1_-1"
     gradientUnits="userSpaceOnUse"
     x1="400.00049"
     y1="781"
     x2="400.00049"
     y2="19.0005"><stop
       offset="0"
       style="stop-color:#6C6C6C"
       id="stop4" /><stop
       offset="1"
       style="stop-color:#484848"
       id="stop6-7" /></linearGradient><linearGradient
     gradientTransform="matrix(0.12754082,0,0,0.12754082,-1.1189515,-0.66835113)"
     y2="19.0005"
     x2="400.00049"
     y1="781"
     x1="400.00049"
     gradientUnits="userSpaceOnUse"
     id="linearGradient3005"
     xlink:href="#SVGID_1_-1"
     inkscape:collect="always" /></defs><sodipodi:namedview
   pagecolor="#ffffff"
   bordercolor="#666666"
   borderopacity="1"
   objecttolerance="10"
   gridtolerance="10"
   guidetolerance="10"
   inkscape:pageopacity="0"
   inkscape:pageshadow="2"
   inkscape:window-width="1068"
   inkscape:window-height="768"
   id="namedview12"
   showgrid="false"
   inkscape:zoom="29.5"
   inkscape:cx="10.958613"
   inkscape:cy="6.9497199"
   inkscape:window-x="2052"
   inkscape:window-y="209"
   inkscape:window-maximized="0"
   inkscape:current-layer="圖層_1" />
  
<path
   style="fill:url(#linearGradient3005)"
   inkscape:connector-curvature="0"
   d="M 98.490433,59.403377 V 41.29258 H 88.105292 C 87.126665,37.148013 85.491081,33.258018 83.314602,29.736871 L 90.660954,22.390519 77.854703,9.5844005 70.508351,16.930752 c -3.521015,-2.176229 -7.411137,-3.81194 -11.555698,-4.79056 V 1.7549245 H 40.841978 V 12.140192 c -4.144434,0.97862 -8.034558,2.614203 -11.55558,4.79056 L 21.940046,9.5844005 9.133802,22.390646 16.480154,29.737 c -2.17636,3.521018 -3.811944,7.411142 -4.790564,11.555709 H 1.3043221 V 59.403505 H 11.689463 c 0.97862,4.144438 2.614204,8.03456 4.790557,11.555711 l -7.346345,7.346346 12.806244,12.80625 7.346352,-7.346352 c 3.521022,2.176226 7.41114,3.811937 11.55558,4.790557 V 98.941031 H 58.952647 V 88.555763 c 4.144567,-0.97862 8.034562,-2.614204 11.555704,-4.790563 l 7.346352,7.346358 12.806251,-12.80625 -7.346352,-7.346352 c 2.176352,-3.521018 3.812063,-7.411013 4.79069,-11.555707 H 98.490433 z M 39.106149,50.120573 c 0,0.743562 -0.08239,1.467484 -0.23429,2.165642 l 17.979811,8.869317 c 1.858397,-2.104423 4.575271,-3.43327 7.604876,-3.43327 5.599164,0 10.142933,4.542111 10.142933,10.144979 0,5.600958 -4.543769,10.142937 -10.142933,10.142937 -5.604652,0 -10.144854,-4.541979 -10.144854,-10.142937 0,-0.03405 0.0027,-0.06734 0.0027,-0.101394 l -19.28527,-9.515055 c -1.69247,1.265715 -3.792686,2.015526 -6.067499,2.015526 -5.602741,0 -10.14307,-4.545681 -10.14307,-10.145743 0,-5.602869 4.540329,-10.143068 10.14307,-10.143068 2.996953,0 5.690227,1.300662 7.547736,3.367589 L 54.367242,33.88858 c -0.03607,-0.348313 -0.05524,-0.701856 -0.05524,-1.059864 0,-5.601975 4.540202,-10.143067 10.144853,-10.143067 5.599171,0 10.14294,4.541092 10.14294,10.143067 0,5.602868 -4.543769,10.14396 -10.14294,10.14396 -2.694803,0 -5.14155,-1.05183 -6.957731,-2.764574 l -18.397001,9.741694 c 6.68e-4,0.05714 0.004,0.11364 0.004,0.170779 z"
   id="path8" /></svg>